<svg width="192" height="192" viewBox="0 0 192 192" fill="none" xmlns="http://www.w3.org/2000/svg">
<path d="M121.2 73.7917C154.194 73.7917 167.537 52.0137 168 29.3089C168 29.3089 93.862 28.6138 86.9116 29.3089C79.9611 30.004 66.0602 35.3327 60.0365 48.3068L27 126C20.5 142 23.4309 153.953 37.7951 160.441C40.8472 161.819 44.3997 162.346 47.9891 162.144M121.2 73.7917C87.3749 73.7917 70.2305 71.9382 39.8842 96.0331M121.2 73.7917C114.713 103.447 86.9116 107.617 86.9116 107.617M86.9116 107.617L68.8404 146.076C63.2801 157.197 56.0258 161.691 47.9891 162.144M86.9116 107.617C48.9158 113.641 37.5171 121.147 34.5516 136.346C31.5861 151.544 39.9524 162.597 47.9891 162.144" stroke="black" stroke-width="10" stroke-linecap="round" stroke-linejoin="round"/>
</svg>
