<svg width="192" height="192" viewBox="0 0 192 192" fill="none" xmlns="http://www.w3.org/2000/svg">
<path d="M139.456 115.031C146.521 111.088 152.418 105.349 156.552 98.3946C160.686 91.4403 162.909 83.5173 162.997 75.4276C163.085 67.3379 161.035 59.3684 157.054 52.3256C153.072 45.2829 147.301 39.4167 140.324 35.3209C133.348 31.225 125.413 29.0447 117.323 29.0006C109.233 28.9566 101.274 31.0503 94.2534 35.07C87.2324 39.0896 81.3978 44.8925 77.34 51.8915C73.2822 58.8905 71.1452 66.8372 71.1452 74.9274V116.532H101.944" stroke="black" stroke-width="12" stroke-linecap="round"/>
<path d="M52.5437 76.9689C45.4794 80.9118 39.5819 86.6509 35.4481 93.6052C31.3143 100.56 29.0908 108.483 29.0027 116.572C28.9146 124.662 30.965 132.631 34.9463 139.674C38.9277 146.717 44.6987 152.583 51.6755 156.679C58.6523 160.775 66.5872 162.955 74.6773 162.999C82.7674 163.043 90.7256 160.95 97.7466 156.93C104.768 152.91 110.602 147.107 114.66 140.108C118.718 133.109 120.855 125.163 120.855 117.072V75.4677H90.0565" stroke="black" stroke-width="12" stroke-linecap="round"/>
</svg>
