<svg width="192" height="192" viewBox="0 0 192 192" fill="none" xmlns="http://www.w3.org/2000/svg">
<path d="M71.5681 24C71.5681 24 90.8568 71.224 92.8522 72.5543C94.8476 73.8845 96.8429 73.8845 98.8383 72.5543C100.834 71.224 120.122 24 120.122 24" stroke="black" stroke-width="12" stroke-linecap="round" stroke-linejoin="round"/>
<path d="M120.122 168C120.122 168 100.834 120.776 98.8383 119.446C96.8429 118.115 94.8475 118.115 92.8522 119.446C90.8568 120.776 71.5681 168 71.5681 168" stroke="black" stroke-width="12" stroke-linecap="round" stroke-linejoin="round"/>
<path d="M29 118.448C29 118.448 70.836 100.48 72.0145 98.6217C73.193 96.763 73.193 94.9043 72.0145 93.0456C70.836 91.1869 29 73.2194 29 73.2194" stroke="black" stroke-width="12" stroke-linecap="round" stroke-linejoin="round"/>
<path d="M162.025 73.2192C162.025 73.2192 120.189 91.1868 119.011 93.0455C117.832 94.9042 117.832 96.7629 119.011 98.6216C120.189 100.48 162.025 118.448 162.025 118.448" stroke="black" stroke-width="12" stroke-linecap="round" stroke-linejoin="round"/>
</svg>
